<svg id="Layer_1" data-name="Layer 1" xmlns="http://www.w3.org/2000/svg" xmlns:xlink="http://www.w3.org/1999/xlink" viewBox="0 0 1284.53 731.78"><defs><style>.cls-1{fill:url(#linear-gradient);}</style><linearGradient id="linear-gradient" x1="662.97" y1="744.3" x2="662.97" y2="12.51" gradientUnits="userSpaceOnUse"><stop offset="0" stop-color="#78eb87"/><stop offset="0.02" stop-color="#74e286"/><stop offset="0.1" stop-color="#64be83"/><stop offset="0.2" stop-color="#56a080"/><stop offset="0.3" stop-color="#4b867e"/><stop offset="0.41" stop-color="#43737c"/><stop offset="0.54" stop-color="#3d657b"/><stop offset="0.7" stop-color="#395d7a"/><stop offset="1" stop-color="#385b7a"/></linearGradient></defs><path class="cls-1" d="M40.5,290.5c44.92-62.29,146.12-22.91,176-78,24.23-44.67-31.73-90.08-5-137,22.38-39.28,87.59-59.43,133-43.06C387.63,48,386.77,87.16,436,102c3.68,1.11,44.41,12.76,84-6s37-48.34,76.5-69.5C630,8.56,664.44,12.38,679,14c72.12,8,75.72,59.49,133,74,89.31,22.63,175.71-78.45,262.5-65.5,9.39,1.4,34.77,5.19,56.5,24.5,8.66,7.7,18,19,26,38,23.75,56.62-4.78,86.71,10,126,19.15,50.9,79,32.26,116,87,34.71,51.37,27.43,135.05-12.5,179.5-34,37.82-62.25,14.58-120.5,51.5-79,50-64.13,113.53-142,152-16.22,8-59.21,29.25-107,18-62.92-14.81-80.85-73.37-146-75-8.48-.21-28.61-.49-50,10-44.75,21.94-41.15,64.59-92,94-23.5,13.59-43.43,15.57-49,16-12.1.93-31.2.27-57-11-64.48-28.16-61.7-74.93-120-100-14.29-6.14-42.09-17.75-75-12-33.68,5.89-51.14,26.18-82,20a71.08,71.08,0,0,1-32-16c-39.37-33.75-8.62-85.47-37-130-30.31-47.56-86.3-21.37-120.5-69.5C14.9,389.48,13.31,328.21,40.5,290.5Z" transform="translate(-20.7 -12.51)"/></svg>