<?xml version="1.0" encoding="utf-8"?>
<!-- Generator: Adobe Illustrator 24.2.0, SVG Export Plug-In . SVG Version: 6.00 Build 0)  -->
<svg version="1.1" id="Layer_1" xmlns="http://www.w3.org/2000/svg" xmlns:xlink="http://www.w3.org/1999/xlink" x="0px" y="0px"
	 viewBox="0 0 1366 768" style="enable-background:new 0 0 1366 768;" xml:space="preserve">
<style type="text/css">
	.st0{fill:#78EB88;}
	.st1{font-family:'Aller-Regular';}
	.st2{font-size:213.1493px;}
	.st3{letter-spacing:-1.84;}
	.st4{fill:url(#SVGID_1_);}
	.st5{fill:url(#SVGID_2_);}
	.st6{fill:none;}
	.st7{font-size:213.15px;}
	.st8{letter-spacing:-2;}
</style>
<text transform="matrix(1.0879 0 0 1 145 399.8418)" class="st0 st1 st2 st3">     derality</text>
<g>
	<linearGradient id="SVGID_1_" gradientUnits="userSpaceOnUse" x1="337.6719" y1="324.8056" x2="380.98" y2="324.8056">
		<stop  offset="0.2908" style="stop-color:#385B7A"/>
		<stop  offset="0.3744" style="stop-color:#3A607A"/>
		<stop  offset="0.474" style="stop-color:#416E7C"/>
		<stop  offset="0.5816" style="stop-color:#4B867E"/>
		<stop  offset="0.695" style="stop-color:#5AA881"/>
		<stop  offset="0.8117" style="stop-color:#6DD386"/>
		<stop  offset="0.8705" style="stop-color:#78EB88"/>
	</linearGradient>
	<path class="st4" d="M337.67,309.3v9.69c10.16,7.1,20.32,14.21,30.48,21.31c4.28-1.29,8.55-2.58,12.83-3.88
		C366.54,327.39,352.11,318.35,337.67,309.3z"/>
	<linearGradient id="SVGID_2_" gradientUnits="userSpaceOnUse" x1="233.4117" y1="309.3044" x2="278.3238" y2="309.3044">
		<stop  offset="0.2908" style="stop-color:#385B7A"/>
		<stop  offset="0.3744" style="stop-color:#3A607A"/>
		<stop  offset="0.474" style="stop-color:#416E7C"/>
		<stop  offset="0.5816" style="stop-color:#4B867E"/>
		<stop  offset="0.695" style="stop-color:#5AA881"/>
		<stop  offset="0.8117" style="stop-color:#6DD386"/>
		<stop  offset="0.8705" style="stop-color:#78EB88"/>
	</linearGradient>
	<polygon class="st5" points="233.41,313.18 278.32,299.62 278.32,309.3 244.64,318.99 	"/>
	<g>
		<polygon class="st6" points="278.32,410.06 316.82,260.86 334.46,260.86 295.97,412 		"/>
		<g>
			<path class="st6" d="M359.33,342.87L326.44,350l-3.21,29.06l62.56-13.56c1.07-10.33,2.14-20.67,3.21-31
				C379.11,337.28,369.22,340.07,359.33,342.87z"/>
			<path class="st6" d="M223.79,338.37l57.74,34.88v-34.88l-46.98-23.65c14.59-5.04,29.18-10.07,43.77-15.11c0,2.58,0,5.17,0,7.75
				c-11.76,3.88-23.53,7.75-35.29,11.63c4.28,1.94,8.55,3.88,12.83,5.81c10.16-3.23,20.32-6.46,30.48-9.69
				c0.53-9.04,1.07-18.08,1.6-27.13c-21.39,7.1-42.77,14.21-64.16,21.31V338.37z"/>
		</g>
		<path class="st6" d="M331.26,326.74l3.21-31L389,334.49l-8.02,1.94l-43.31-27.13c0,3.23,0,6.46,0,9.69
			c11.23,7.1,22.46,14.21,33.68,21.31c-4.39,0.94-8.79,1.87-13.18,2.81c-3.67-2.23-7.33-4.46-11-6.69
			C341.87,333.2,336.56,329.97,331.26,326.74z"/>
	</g>
</g>
<text transform="matrix(1 0 0 1 109.2739 400.2461)" class="st0 st1 st7 st8">C</text>
</svg>
