<?xml version="1.0" encoding="utf-8"?>
<!-- Generator: Adobe Illustrator 24.2.0, SVG Export Plug-In . SVG Version: 6.00 Build 0)  -->
<svg version="1.1" id="Layer_1" xmlns="http://www.w3.org/2000/svg" xmlns:xlink="http://www.w3.org/1999/xlink" x="0px" y="0px"
	 viewBox="0 0 588 200" style="enable-background:new 0 0 588 200;" xml:space="preserve">
<style type="text/css">
	.st0{fill:#865ECF;}
	.st1{fill:#FFFFFF;}
	.st2{fill:url(#SVGID_1_);}
	.st3{fill:url(#SVGID_2_);}
	.st4{font-family:'BDColonius';}
	.st5{font-size:101.1742px;}
	.st6{letter-spacing:3;}
</style>
<path class="st0" d="M155.45,86.68"/>
<g>
	<polygon class="st1" points="135.61,61.74 119.68,131.23 112.83,130.44 128.76,60.57 	"/>
	<path class="st1" d="M135.61,76.86l-1.96,13.94c3.7,2.48,7.41,4.97,11.11,7.45c1.64-0.42,3.29-0.84,4.93-1.25
		c-4.17-3.05-8.35-6.1-12.52-9.15c0.09-1.48,0.17-2.96,0.26-4.44c5.46,4.17,10.92,8.34,16.38,12.51c1.48-0.4,2.97-0.79,4.45-1.19
		C150.71,88.77,143.16,82.82,135.61,76.86z"/>
	<path class="st1" d="M132.12,101.32c5.65-1.33,11.35-2.73,17.11-4.21c3.03-0.78,6.04-1.57,9.03-2.38
		c-0.28,5.01-0.56,10.02-0.83,15.04c-8.99,2.32-17.97,4.65-26.96,6.97C131.02,111.6,131.57,106.46,132.12,101.32z"/>
	<path class="st1" d="M114.64,98.55c-0.3,4.89-0.59,9.77-0.89,14.66c-7.95-5.25-15.89-10.49-23.84-15.74
		c-0.1-5.11-0.19-10.22-0.29-15.33C97.96,87.61,106.3,93.08,114.64,98.55z"/>
	<path class="st1" d="M89.62,82.14c8.72-3.24,17.43-6.49,26.15-9.73c-0.05,5.09-0.09,10.18-0.14,15.27
		c-4.2,1.15-8.41,2.3-12.61,3.46c-1.78-1.03-3.57-2.06-5.35-3.09c4.86-1.76,9.73-3.52,14.59-5.29c0.03-1.21,0.05-2.43,0.08-3.64
		c-0.01,0-17.55,6.42-17.55,6.42l0,0c0,0-0.52,0.19-0.53,0.19C92.72,84.53,91.17,83.34,89.62,82.14z"/>
	<linearGradient id="SVGID_1_" gradientUnits="userSpaceOnUse" x1="103.5723" y1="87.8228" x2="103.5723" y2="79.1176">
		<stop  offset="0.0926" style="stop-color:#865ECF;stop-opacity:0.8"/>
		<stop  offset="0.4755" style="stop-color:#809FAE;stop-opacity:0.8844"/>
		<stop  offset="0.8291" style="stop-color:#7AD692;stop-opacity:0.9623"/>
		<stop  offset="1" style="stop-color:#78EB87"/>
	</linearGradient>
	<path class="st2" d="M94.8,85.53c5.85-2.14,11.7-4.28,17.55-6.42c-0.03,1.21-0.05,2.43-0.08,3.64c-4.66,1.69-9.32,3.38-13.98,5.06
		C97.13,87.06,95.96,86.3,94.8,85.53z"/>
	<linearGradient id="SVGID_2_" gradientUnits="userSpaceOnUse" x1="137.1751" y1="90.1966" x2="153.81" y2="90.1966">
		<stop  offset="0.0926" style="stop-color:#865ECF;stop-opacity:0.8"/>
		<stop  offset="0.4755" style="stop-color:#809FAE;stop-opacity:0.8844"/>
		<stop  offset="0.8291" style="stop-color:#7AD692;stop-opacity:0.9623"/>
		<stop  offset="1" style="stop-color:#78EB87"/>
	</linearGradient>
	<path class="st3" d="M137.43,83.4c5.46,4.17,10.92,8.34,16.38,12.51c-1.37,0.36-2.74,0.71-4.11,1.07
		c-4.17-3.05-8.35-6.1-12.52-9.15C137.26,86.36,137.35,84.88,137.43,83.4z"/>
</g>
<text transform="matrix(1 0 0 1 29.143 124.3804)" class="st1 st4 st5 st6">C   derality</text>
</svg>
