<svg id="Layer_1" data-name="Layer 1" xmlns="http://www.w3.org/2000/svg" xmlns:xlink="http://www.w3.org/1999/xlink" viewBox="0 0 1366 769.5"><defs><style>.cls-1{fill:url(#linear-gradient);}.cls-2{fill:url(#linear-gradient-2);}.cls-3{fill:url(#linear-gradient-3);}</style><linearGradient id="linear-gradient" x1="465.62" y1="775.79" x2="1798.53" y2="775.79" gradientTransform="matrix(-1.03, 0, 0, -1.03, 1843.06, 1183.82)" gradientUnits="userSpaceOnUse"><stop offset="0.13" stop-color="#78eb88"/><stop offset="0.14" stop-color="#75e587"/><stop offset="0.25" stop-color="#60b483"/><stop offset="0.35" stop-color="#4e8e7f"/><stop offset="0.45" stop-color="#42727c"/><stop offset="0.53" stop-color="#3b617b"/><stop offset="0.59" stop-color="#385b7a"/></linearGradient><linearGradient id="linear-gradient-2" x1="370.67" y1="513.44" x2="370.67" y2="513.44" gradientTransform="matrix(1, 0, 0, 1, 0, 0)" xlink:href="#linear-gradient"/><linearGradient id="linear-gradient-3" x1="-126.32" y1="376.41" x2="-126.32" y2="376.41" gradientTransform="matrix(1, 0, 0, 1, 0, 0)" xlink:href="#linear-gradient"/></defs><path class="cls-1" d="M0,582.8V0H1366V768c0,1-.08,1.46-.25,1.5-5.87,1.17-48.11-173.8-132.9-195.89-69.11-18-102.45,83.09-253.44,116.19-54.76,12-97.32,21.33-141.91,3-119-49-82.18-225.19-208.44-294.17-67.27-36.75-142.81-22.31-174.43-16.26C311.87,409.62,265.38,526.83,169.33,508,113.54,497,93.23,450.42,57,462.14,19.82,474.17,5.94,534.54,0,582.8Z"/><path class="cls-2" d="M370.67,513.44"/><path class="cls-3" d="M-126.32,376.41"/></svg>