<?xml version="1.0" encoding="utf-8"?>
<!-- Generator: Adobe Illustrator 24.2.0, SVG Export Plug-In . SVG Version: 6.00 Build 0)  -->
<svg version="1.1" id="Layer_1" xmlns="http://www.w3.org/2000/svg" xmlns:xlink="http://www.w3.org/1999/xlink" x="0px" y="0px"
	 viewBox="0 0 1366 768" style="enable-background:new 0 0 1366 768;" xml:space="preserve">
<style type="text/css">
	.st0{fill:url(#SVGID_1_);}
	.st1{fill:url(#SVGID_2_);}
	.st2{fill:url(#SVGID_3_);}
</style>
<g>
	
		<linearGradient id="SVGID_1_" gradientUnits="userSpaceOnUse" x1="465.6208" y1="775.7881" x2="1798.5266" y2="775.7881" gradientTransform="matrix(-1.0253 -8.401425e-04 8.435779e-04 -1.0295 1843.0605 1183.8159)">
		<stop  offset="0.1255" style="stop-color:#78EB88"/>
		<stop  offset="0.1374" style="stop-color:#75E587"/>
		<stop  offset="0.2475" style="stop-color:#60B483"/>
		<stop  offset="0.3516" style="stop-color:#4E8E7F"/>
		<stop  offset="0.447" style="stop-color:#42727C"/>
		<stop  offset="0.5307" style="stop-color:#3B617B"/>
		<stop  offset="0.5935" style="stop-color:#385B7A"/>
	</linearGradient>
	<path class="st0" d="M0,582.8C0,388.53,0,194.27,0,0c455.33,0,910.67,0,1366,0c0,256,0,512,0,768c0,0.98-0.08,1.46-0.25,1.5
		c-5.87,1.17-48.1-173.79-132.89-195.89c-69.12-18.01-102.46,83.09-253.44,116.19c-54.76,12-97.32,21.33-141.91,2.96
		c-119.01-49.04-82.18-225.19-208.43-294.17c-67.27-36.75-142.82-22.31-174.43-16.26c-142.76,27.3-189.25,144.51-285.3,125.65
		c-55.78-10.95-76.1-57.55-112.35-45.83C19.82,474.17,5.94,534.54,0,582.8z"/>
</g>
<linearGradient id="SVGID_2_" gradientUnits="userSpaceOnUse" x1="370.6707" y1="513.4373" x2="370.6707" y2="513.4373">
	<stop  offset="0.1255" style="stop-color:#78EB88"/>
	<stop  offset="0.1374" style="stop-color:#75E587"/>
	<stop  offset="0.2475" style="stop-color:#60B483"/>
	<stop  offset="0.3516" style="stop-color:#4E8E7F"/>
	<stop  offset="0.447" style="stop-color:#42727C"/>
	<stop  offset="0.5307" style="stop-color:#3B617B"/>
	<stop  offset="0.5935" style="stop-color:#385B7A"/>
</linearGradient>
<path class="st1" d="M370.67,513.44"/>
<linearGradient id="SVGID_3_" gradientUnits="userSpaceOnUse" x1="-126.3233" y1="376.4052" x2="-126.3233" y2="376.4052">
	<stop  offset="0.1255" style="stop-color:#78EB88"/>
	<stop  offset="0.1374" style="stop-color:#75E587"/>
	<stop  offset="0.2475" style="stop-color:#60B483"/>
	<stop  offset="0.3516" style="stop-color:#4E8E7F"/>
	<stop  offset="0.447" style="stop-color:#42727C"/>
	<stop  offset="0.5307" style="stop-color:#3B617B"/>
	<stop  offset="0.5935" style="stop-color:#385B7A"/>
</linearGradient>
<path class="st2" d="M-126.32,376.41"/>
</svg>
